<?xml version="1.0" encoding="UTF-8"?>
<svg width="64px" height="64px" viewBox="0 0 64 64" version="1.1" xmlns="http://www.w3.org/2000/svg" xmlns:xlink="http://www.w3.org/1999/xlink">
    <title>current_price</title>
    <g id="current_price" stroke="none" fill="none" fill-rule="nonzero">
        <path d="M51,8 C53.7614237,8 56,10.2385763 56,13 L56,27.5147186 C56,29.1060176 55.367859,30.632141 54.2426407,31.7573593 L31.5355339,54.4644661 C29.5829124,56.4170876 26.4170876,56.4170876 24.4644661,54.4644661 L9.53553391,39.5355339 C7.58291245,37.5829124 7.58291245,34.4170876 9.53553391,32.4644661 L32.2426407,9.75735931 C33.367859,8.63214104 34.8939824,8 36.4852814,8 L51,8 Z M51,12 L36.4852813,12 L36.2876059,12.0097867 C35.8297595,12.0552465 35.3992565,12.2575978 35.0710678,12.5857864 L12.363961,35.2928932 C11.9734367,35.6834175 11.9734367,36.3165825 12.363961,36.7071068 L27.2928932,51.636039 C27.6834175,52.0265633 28.3165825,52.0265633 28.7071068,51.636039 L51.4142136,28.9289322 C51.7892863,28.5538594 52,28.0451516 52,27.5147186 L52,13 C52,12.4477153 51.5522847,12 51,12 Z M34.9561759,25.5191251 C36.876781,25.6415798 38.6813765,26.5471 40.3699622,28.2356857 C41.0466855,28.912409 41.7072963,29.7728143 42.3517947,30.8169017 L39.654569,32.8180691 C39.25498,32.0060012 38.7619388,31.3067204 38.1754453,30.7202269 C36.3515149,28.8962965 34.4212423,28.8286242 32.3846274,30.5172099 L35.6038968,33.7364793 L34.1344405,35.2059356 L30.8958362,31.9673313 L29.6970692,33.1660982 L32.9356735,36.4047025 L31.4662172,37.8741588 L28.2276129,34.6355545 C27.3124253,35.615192 26.8532202,36.5803283 26.8499977,37.5309634 C26.8467752,38.4815985 27.3446502,39.4564023 28.3436227,40.4553748 C29.0203459,41.1320981 29.7325166,41.6444743 30.4801347,41.9925034 L28.4886348,44.6800616 C27.5025523,44.0677881 26.5841421,43.3362825 25.7334043,42.4855446 C24.0383735,40.7905139 23.1521883,38.9923635 23.0748485,37.0910933 C22.9975087,35.1898231 23.7451268,33.4013401 25.3177028,31.7256444 L23.6838994,30.091841 L25.1533557,28.6223847 L26.7871591,30.2561881 L27.9859261,29.0574211 L26.3521227,27.4236178 L27.821579,25.9541615 L29.4747173,27.6072998 C31.2084179,26.0927286 33.0355708,25.3966704 34.9561759,25.5191251 Z M46,15 C47.6568542,15 49,16.3431458 49,18 C49,19.6568542 47.6568542,21 46,21 C44.3431458,21 43,19.6568542 43,18 C43,16.3431458 44.3431458,15 46,15 Z" id="Shape" fill="#000000"></path>
    </g>
</svg>